<?xml version="1.0" encoding="UTF-8" standalone="no"?>
<svg width="260px" height="120px" viewBox="0 0 260 120" version="1.1" xmlns="http://www.w3.org/2000/svg" xmlns:xlink="http://www.w3.org/1999/xlink" xmlns:sketch="http://www.bohemiancoding.com/sketch/ns">
    <!-- Generator: Sketch 3.2.2 (9983) - http://www.bohemiancoding.com/sketch -->
    <title>june-blk-logo 9</title>
    <desc>Created with Sketch.</desc>
    <defs></defs>
    <g id="Page-1" stroke="none" stroke-width="1" fill="none" fill-rule="evenodd" sketch:type="MSPage">
        <g id="june-blk-logo-9" sketch:type="MSArtboardGroup" fill="#FFFFFF">
            <g id="Imported-Layers" sketch:type="MSLayerGroup" transform="translate(30.000000, 34.000000)">
                <path d="M78.1011881,2.09019713 L78.1011881,54.0780108 L66.9240788,54.0780108 L66.9240788,49.4092204 C62.9856369,52.6509677 57.9039555,54.8533333 51.0426681,54.8533333 C51.0426681,54.8533333 29.9574823,56.0238082 29.9574823,33.7211111 L29.9574823,2.09019713 L41.260385,2.09019713 L41.260385,35.796129 C41.260385,51.3531452 66.9240788,49.4092204 66.9240788,35.2773746 L66.9240788,2.09019713 L78.1011881,2.09019713" id="Fill-1" sketch:type="MSShapeGroup"></path>
                <path d="M130.877049,21.4095878 L130.877049,54.0780108 L119.570447,54.0780108 L119.570447,19.3326971 C119.570447,3.775681 93.9086028,5.72147849 93.9086028,19.8514516 L93.9086028,54.0780108 L82.7296436,54.0780108 L82.7296436,2.09019713 L93.9086028,2.09019713 L93.9086028,5.72147849 C97.7194014,2.48160394 102.926876,0.275492832 109.786314,0.275492832 C109.786314,0.275492832 130.877049,-0.891236559 130.877049,21.4095878" id="Fill-2" sketch:type="MSShapeGroup"></path>
                <path d="M144.087201,29.4456004 C144.087201,39.3656093 152.091728,45.7311201 160.856565,45.7311201 C166.319326,45.7311201 172.12247,42.8732885 174.322003,38.1295878 L186.009686,38.1295878 C181.943601,48.242491 172.287111,55.4994355 160.856565,55.4994355 C145.99445,55.4994355 133.798045,43.056819 133.798045,27.8874642 C133.798045,12.5945072 145.99445,0.275492832 160.856565,0.275492832 C175.844473,0.275492832 187.915085,12.5945072 187.915085,27.8874642 C187.915085,28.4080914 187.915085,28.9268459 187.787442,29.4456004 L144.087201,29.4456004 L144.087201,29.4456004 Z M176.480839,21.4095878 C174.253557,14.5889964 167.971289,10.1411918 160.856565,10.1411918 C153.869484,10.1411918 147.33378,14.6863799 145.230441,21.4095878 L176.480839,21.4095878 L176.480839,21.4095878 Z" id="Fill-3" sketch:type="MSShapeGroup"></path>
                <path d="M187.108528,47.5963889 C187.108528,43.9632348 189.90188,41.1110215 193.461092,41.1110215 C197.020304,41.1110215 199.811806,43.9632348 199.811806,47.5963889 C199.811806,51.2239247 197.020304,54.0780108 193.461092,54.0780108 C189.90188,54.0780108 187.108528,51.2239247 187.108528,47.5963889" id="Fill-4" sketch:type="MSShapeGroup"></path>
                <path d="M14.8474808,0.790501792 L26.02829,0.790501792 L26.02829,50.8512455 C26.02829,67.9626523 14.8474808,76.777733 0.494089337,76.777733 L0.366446082,65.4999731 C8.36912318,65.4999731 14.8474808,61.2207168 14.8474808,50.8512455 L14.8474808,0.790501792" id="Fill-5" sketch:type="MSShapeGroup"></path>
            </g>
        </g>
    </g>
</svg>