<?xml version="1.0" encoding="UTF-8" standalone="no"?>
<svg width="114px" height="192px" viewBox="0 0 114 192" version="1.1" xmlns="http://www.w3.org/2000/svg" xmlns:xlink="http://www.w3.org/1999/xlink" xmlns:sketch="http://www.bohemiancoding.com/sketch/ns">
    <!-- Generator: Sketch 3.2.2 (9983) - http://www.bohemiancoding.com/sketch -->
    <title>Imported Layers</title>
    <desc>Created with Sketch.</desc>
    <defs></defs>
    <g id="Page-1" stroke="none" stroke-width="1" fill="none" fill-rule="evenodd" sketch:type="MSPage">
        <g id="Imported-Layers" sketch:type="MSLayerGroup" fill="#EBF0F9">
            <path d="M57,0.644 C25.83,0.644 0.471,26.004 0.471,57.174 C0.471,88.344 25.83,113.703 57,113.703 C88.171,113.703 113.529,88.344 113.529,57.174 C113.529,26.004 88.171,0.644 57,0.644 L57,0.644 Z M57,106.703 C29.69,106.703 7.471,84.484 7.471,57.174 C7.471,29.863 29.69,7.644 57,7.644 C74.626,7.644 90.12,16.906 98.9,30.81 L50.702,79.008 L39.572,67.878 C32.508,60.813 33.969,51.827 37.74,48.056 C40.347,45.448 43.496,43.862 46.608,43.591 C49.955,43.294 53.017,44.511 55.703,47.197 L59.562,51.058 C60.93,52.426 63.145,52.426 64.513,51.058 C65.879,49.691 65.879,47.475 64.513,46.108 L60.652,42.248 C56.494,38.09 51.43,36.144 45.998,36.617 C41.25,37.032 36.559,39.337 32.789,43.106 C29.376,46.52 27.488,51.576 27.61,56.977 C27.742,62.809 30.232,68.437 34.622,72.827 L48.227,86.432 C48.91,87.115 49.807,87.457 50.702,87.457 C51.598,87.457 52.494,87.115 53.177,86.432 L102.34,37.269 C105.027,43.365 106.529,50.096 106.529,57.174 C106.529,84.484 84.31,106.703 57,106.703 L57,106.703 Z" id="Fill-1" sketch:type="MSShapeGroup"></path>
            <path d="M35.611,143.828 C33.986,143.828 32.651,145.103 32.651,146.728 C32.651,148.353 33.986,149.629 35.611,149.629 C37.177,149.629 38.512,148.353 38.512,146.728 C38.512,145.103 37.177,143.828 35.611,143.828" id="Fill-2" sketch:type="MSShapeGroup"></path>
            <path d="M33,155.373 L38.048,155.373 L38.048,178.525 L33,178.525 L33,155.373 Z" id="Fill-3" sketch:type="MSShapeGroup"></path>
            <path d="M55.574,175.043 C51.453,175.043 47.857,171.444 47.857,166.803 C47.857,162.685 51.453,159.029 55.574,159.029 C58.185,159.029 60.331,160.015 61.84,162.046 L64.914,158.507 C62.826,155.953 59.171,154.444 55.574,154.444 C48.901,154.444 43.216,160.131 43.216,166.803 C43.216,173.998 48.901,179.161 55.574,179.161 C59.171,179.161 62.826,177.652 65.379,175.043 L61.84,171.561 C60.331,173.592 58.185,175.043 55.574,175.043" id="Fill-4" sketch:type="MSShapeGroup"></path>
            <path d="M78.509,164.191 C76.188,163.554 73.983,162.801 73.983,160.885 C73.983,158.913 75.666,157.984 77.813,157.984 C80.365,157.984 82.048,159.318 82.048,161.293 L85.993,161.293 C85.993,157.346 83.092,154.213 77.87,154.213 C73.112,154.213 69.399,156.882 69.399,160.827 C69.399,164.25 71.432,166.688 77.29,168.138 C79.727,168.776 82.628,169.763 82.628,172.142 C82.628,174.462 79.959,175.334 77.813,175.274 C75.434,175.159 73.288,173.823 73.288,171.852 L73.288,171.097 L69.052,170.981 C68.993,171.213 68.993,171.619 68.993,171.852 C68.993,175.971 72.592,179.161 77.813,179.161 C83.034,179.161 87.153,176.551 87.153,171.793 C87.153,167.906 84.31,165.7 78.509,164.191" id="Fill-5" sketch:type="MSShapeGroup"></path>
            <path d="M106.457,155.257 L100.134,172.142 L93.519,155.257 L88.356,155.257 L97.755,178.522 L92.707,191.926 L97.349,191.926 L111.563,155.257 L106.457,155.257" id="Fill-6" sketch:type="MSShapeGroup"></path>
            <path d="M17.172,137.909 L2.435,137.909 L2.435,178.521 L7.483,178.523 L7.483,161.116 L17.172,161.116 C23.265,160.768 28.081,155.721 28.081,149.513 C28.081,143.362 23.265,138.314 17.172,137.909 L17.172,137.909 Z M16.477,156.532 L7.483,156.532 L7.483,142.491 L16.477,142.491 C20.189,142.666 23.148,145.741 23.148,149.513 C23.148,153.284 20.189,156.358 16.477,156.532 L16.477,156.532 Z" id="Fill-7" sketch:type="MSShapeGroup"></path>
        </g>
    </g>
</svg>