<?xml version="1.0" encoding="UTF-8" standalone="no"?>
<svg width="260px" height="100px" viewBox="0 0 260 100" version="1.1" xmlns="http://www.w3.org/2000/svg" xmlns:xlink="http://www.w3.org/1999/xlink" xmlns:sketch="http://www.bohemiancoding.com/sketch/ns">
    <!-- Generator: Sketch 3.2.2 (9983) - http://www.bohemiancoding.com/sketch -->
    <title>june-logo</title>
    <desc>Created with Sketch.</desc>
    <defs></defs>
    <g id="Page-1" stroke="none" stroke-width="1" fill="none" fill-rule="evenodd" sketch:type="MSPage">
        <g id="june-logo" sketch:type="MSArtboardGroup" fill="#FFFFFF">
            <g id="Imported-Layers" sketch:type="MSLayerGroup" transform="translate(47.000000, 34.000000)">
                <path d="M64.8239862,1.73730671 L64.8239862,44.947957 L55.5469854,44.947957 L55.5469854,41.067404 C52.2780787,43.7618433 48.0602831,45.592381 42.3654145,45.592381 C42.3654145,45.592381 24.8647103,46.5652432 24.8647103,28.0279365 L24.8647103,1.73730671 L34.2461196,1.73730671 L34.2461196,29.7526267 C34.2461196,42.6831336 55.5469854,41.067404 55.5469854,29.3214542 L55.5469854,1.73730671 L64.8239862,1.73730671" id="Fill-1" sketch:type="MSShapeGroup"></path>
                <path d="M108.627951,17.7949821 L108.627951,44.947957 L99.2434707,44.947957 L99.2434707,16.0687353 C99.2434707,3.13822837 77.9441403,4.75551459 77.9441403,16.4999078 L77.9441403,44.947957 L68.6656042,44.947957 L68.6656042,1.73730671 L77.9441403,1.73730671 L77.9441403,4.75551459 C81.1071032,2.06263185 85.4293073,0.228981055 91.1226404,0.228981055 C91.1226404,0.228981055 108.627951,-0.740768049 108.627951,17.7949821" id="Fill-2" sketch:type="MSShapeGroup"></path>
                <path d="M119.592377,24.4742652 C119.592377,32.7194675 126.236134,38.0102816 133.510949,38.0102816 C138.045041,38.0102816 142.86165,35.6349411 144.687263,31.6921249 L154.388039,31.6921249 C151.013188,40.0976549 142.998302,46.1294009 133.510949,46.1294009 C121.175394,46.1294009 111.052377,35.7874859 111.052377,23.179191 C111.052377,10.4681618 121.175394,0.228981055 133.510949,0.228981055 C145.950912,0.228981055 155.969521,10.4681618 155.969521,23.179191 C155.969521,23.6119201 155.969521,24.0430927 155.863577,24.4742652 L119.592377,24.4742652 L119.592377,24.4742652 Z M146.479097,17.7949821 C144.630452,12.1259191 139.41617,8.4290425 133.510949,8.4290425 C127.711672,8.4290425 122.287037,12.2068612 120.541266,17.7949821 L146.479097,17.7949821 L146.479097,17.7949821 Z" id="Fill-3" sketch:type="MSShapeGroup"></path>
                <path d="M155.300078,39.5606349 C155.300078,36.5408705 157.61856,34.1701997 160.572706,34.1701997 C163.526852,34.1701997 165.843799,36.5408705 165.843799,39.5606349 C165.843799,42.5757296 163.526852,44.947957 160.572706,44.947957 C157.61856,44.947957 155.300078,42.5757296 155.300078,39.5606349" id="Fill-4" sketch:type="MSShapeGroup"></path>
                <path d="M12.3234091,0.657040451 L21.6034807,0.657040451 L21.6034807,42.2659703 C21.6034807,56.4884383 12.3234091,63.8152586 0.410094149,63.8152586 L0.304150248,54.4415361 C6.94637224,54.4415361 12.3234091,50.8847517 12.3234091,42.2659703 L12.3234091,0.657040451" id="Fill-5" sketch:type="MSShapeGroup"></path>
            </g>
        </g>
    </g>
</svg>