<?xml version="1.0" encoding="UTF-8"?>
<svg width="391px" height="93px" viewBox="0 0 391 93" version="1.1" xmlns="http://www.w3.org/2000/svg" xmlns:xlink="http://www.w3.org/1999/xlink">
    <!-- Generator: Sketch 42 (36781) - http://www.bohemiancoding.com/sketch -->
    <title>Combined Shape</title>
    <desc>Created with Sketch.</desc>
    <defs></defs>
    <g id="Page-2" stroke="none" stroke-width="1" fill="none" fill-rule="evenodd">
        <g id="Artboard-1-Copy-11" transform="translate(-98.000000, -254.000000)" fill="#380BF2">
            <path d="M110.867299,319.22 C112.661105,321.18 114.555123,322.86 116.719716,324.26 C118.884308,325.66 121.930772,326.36 125.859106,326.36 C129.78744,326.36 132.813861,325.66 134.938368,324.26 C137.062876,322.86 138.646235,321.04 139.688446,318.8 C140.730657,316.56 141.351976,314.06 141.552401,311.3 C141.752826,308.54 141.853039,305.84 141.853039,303.2 L141.853039,254 L165.30279,254 L165.30279,306.44 C165.30279,320.52 162.075943,330.8 155.622251,337.28 C149.168559,343.76 139.247511,347 125.859106,347 C112.470701,347 104.493777,341.04 98,334.55 L110.867299,319.22 Z M219.76,254 L219.76,303.2 C219.76,305.840013 219.859999,308.539986 220.06,311.3 C220.260001,314.060014 220.859995,316.559989 221.86,318.8 C222.860005,321.040011 224.439989,322.859993 226.6,324.26 C228.760011,325.660007 231.79998,326.36 235.72,326.36 C239.64002,326.36 242.659989,325.660007 244.78,324.26 C246.900011,322.859993 248.479995,321.040011 249.52,318.8 C250.560005,316.559989 251.179999,314.060014 251.38,311.3 C251.580001,308.539986 251.68,305.840013 251.68,303.2 L251.68,254 L275.08,254 L275.08,306.44 C275.08,320.52007 271.860032,330.799968 265.42,337.28 C258.979968,343.760032 249.080067,347 235.72,347 C222.359933,347 212.440032,343.760032 205.96,337.28 C199.479968,330.799968 196.24,320.52007 196.24,306.44 L196.24,254 L219.76,254 Z M306.04,344.48 L306.04,254 L328.56,254 L373,309.32 L373,254 L396.4,254 L396.4,344.48 L374,344.48 L329.56,289.16 L329.56,344.48 L306.04,344.48 Z M488.84,273.92 L450.88,273.92 L450.88,289.04 L487.28,289.04 L487.28,308.96 L450.88,308.96 L450.88,324.56 L488.84,324.56 L488.84,344.48 L427.36,344.48 L427.36,254 L488.84,254 L488.84,273.92 Z" id="Combined-Shape"></path>
        </g>
    </g>
</svg>