<?xml version="1.0" encoding="UTF-8" standalone="no"?>
<svg width="114px" height="114px" viewBox="0 0 114 114" version="1.1" xmlns="http://www.w3.org/2000/svg" xmlns:xlink="http://www.w3.org/1999/xlink" xmlns:sketch="http://www.bohemiancoding.com/sketch/ns">
    <!-- Generator: Sketch 3.2.2 (9983) - http://www.bohemiancoding.com/sketch -->
    <title>Imported Layers</title>
    <desc>Created with Sketch.</desc>
    <defs></defs>
    <g id="Page-1" stroke="none" stroke-width="1" fill="none" fill-rule="evenodd" sketch:type="MSPage">
        <path d="M56.529,0 C25.359,0 0,25.359 0,56.529 C0,87.699 25.359,113.059 56.529,113.059 C87.7,113.059 113.058,87.699 113.058,56.529 C113.058,25.359 87.7,0 56.529,0 L56.529,0 Z M56.529,106.059 C29.219,106.059 7,83.84 7,56.529 C7,29.219 29.219,7 56.529,7 C74.155,7 89.649,16.262 98.429,30.166 L50.231,78.363 L39.101,67.233 C32.037,60.169 33.498,51.183 37.269,47.411 C39.876,44.804 43.025,43.218 46.137,42.946 C49.484,42.649 52.546,43.866 55.232,46.553 L59.091,50.413 C60.459,51.78 62.674,51.78 64.042,50.413 C65.408,49.047 65.408,46.83 64.042,45.464 L60.181,41.604 C56.023,37.445 50.959,35.5 45.527,35.973 C40.779,36.388 36.088,38.692 32.318,42.462 C28.905,45.876 27.017,50.932 27.139,56.332 C27.271,62.164 29.761,67.793 34.151,72.183 L47.756,85.787 C48.439,86.471 49.336,86.813 50.231,86.813 C51.127,86.813 52.023,86.471 52.706,85.787 L101.869,36.625 C104.556,42.721 106.058,49.451 106.058,56.529 C106.058,83.84 83.839,106.059 56.529,106.059 L56.529,106.059 Z" id="Imported-Layers" fill="#EBF0F9" sketch:type="MSShapeGroup"></path>
    </g>
</svg>