<?xml version="1.0" encoding="UTF-8" standalone="no"?>
<svg width="161px" height="207px" viewBox="0 0 161 207" version="1.1" xmlns="http://www.w3.org/2000/svg" xmlns:xlink="http://www.w3.org/1999/xlink" xmlns:sketch="http://www.bohemiancoding.com/sketch/ns">
    <!-- Generator: Sketch 3.2.2 (9983) - http://www.bohemiancoding.com/sketch -->
    <title>logitech</title>
    <desc>Created with Sketch.</desc>
    <defs></defs>
    <g id="Page-1" stroke="none" stroke-width="1" fill="none" fill-rule="evenodd" sketch:type="MSPage">
        <g id="logitech" sketch:type="MSLayerGroup" fill="#333A3F">
            <path d="M0.561,162.154 L5.291,162.154 L5.291,190.889 L20.167,190.889 L20.167,195.193 L0.561,195.193 L0.561,162.154" id="Fill-1" sketch:type="MSShapeGroup"></path>
            <path d="M34.121,173.388 C37.432,173.388 40.183,174.456 42.375,176.593 C44.566,178.729 45.663,181.413 45.663,184.645 C45.663,187.783 44.551,190.388 42.328,192.462 C40.105,194.535 37.306,195.572 33.932,195.572 C30.668,195.572 27.941,194.52 25.749,192.414 C23.557,190.31 22.462,187.68 22.462,184.527 C22.462,181.342 23.569,178.689 25.784,176.569 C28,174.448 30.778,173.388 34.121,173.388 L34.121,173.388 Z M33.885,177.267 C31.819,177.267 30.124,177.944 28.8,179.3 C27.476,180.657 26.813,182.383 26.813,184.48 C26.813,186.561 27.491,188.26 28.847,189.577 C30.203,190.893 31.945,191.551 34.074,191.551 C36.187,191.551 37.917,190.885 39.265,189.553 C40.613,188.22 41.287,186.514 41.287,184.432 C41.287,182.367 40.586,180.657 39.182,179.3 C37.779,177.944 36.013,177.267 33.885,177.267 L33.885,177.267 Z" id="Fill-2" sketch:type="MSShapeGroup"></path>
            <path d="M49.329,180.956 C49.329,178.638 50.176,176.805 51.871,175.457 C53.565,174.109 55.879,173.435 58.813,173.435 L67.776,173.435 L67.776,176.793 L63.377,176.793 C64.228,177.661 64.819,178.449 65.15,179.159 C65.482,179.868 65.647,180.68 65.647,181.595 C65.647,182.73 65.324,183.845 64.678,184.941 C64.031,186.037 63.199,186.877 62.183,187.46 C61.166,188.043 59.498,188.509 57.18,188.855 C55.556,189.092 54.745,189.651 54.745,190.534 C54.745,191.039 55.048,191.453 55.655,191.776 C56.262,192.099 57.361,192.435 58.954,192.781 C61.619,193.365 63.333,193.822 64.098,194.152 C64.863,194.484 65.553,194.957 66.168,195.572 C67.208,196.612 67.729,197.921 67.729,199.498 C67.729,201.563 66.81,203.211 64.973,204.441 C63.136,205.67 60.681,206.286 57.606,206.286 C54.5,206.286 52.02,205.666 50.168,204.428 C48.315,203.191 47.389,201.532 47.389,199.451 C47.389,196.502 49.211,194.602 52.853,193.751 C51.401,192.821 50.677,191.898 50.677,190.984 C50.677,190.29 50.988,189.659 51.611,189.092 C52.234,188.524 53.073,188.107 54.129,187.838 C50.929,186.419 49.329,184.125 49.329,180.956 L49.329,180.956 Z M56.4,196.21 C54.949,196.21 53.763,196.518 52.84,197.133 C51.918,197.747 51.457,198.536 51.457,199.498 C51.457,201.736 53.475,202.856 57.512,202.856 C59.419,202.856 60.897,202.576 61.946,202.017 C62.994,201.457 63.519,200.664 63.519,199.64 C63.519,198.63 62.857,197.806 61.532,197.168 C60.208,196.53 58.497,196.21 56.4,196.21 L56.4,196.21 Z M57.417,177.172 C56.25,177.172 55.256,177.566 54.437,178.354 C53.617,179.143 53.207,180.089 53.207,181.192 C53.207,182.312 53.61,183.238 54.413,183.972 C55.217,184.704 56.235,185.071 57.464,185.071 C58.678,185.071 59.691,184.697 60.503,183.948 C61.315,183.199 61.721,182.265 61.721,181.145 C61.721,180.01 61.311,179.064 60.491,178.307 C59.671,177.55 58.646,177.172 57.417,177.172 L57.417,177.172 Z" id="Fill-3" sketch:type="MSShapeGroup"></path>
            <path d="M73.334,164.282 C74.043,164.282 74.65,164.527 75.155,165.015 C75.659,165.504 75.912,166.103 75.912,166.813 C75.912,167.507 75.659,168.106 75.155,168.61 C74.65,169.115 74.043,169.367 73.334,169.367 C72.671,169.367 72.088,169.111 71.584,168.599 C71.079,168.086 70.827,167.491 70.827,166.813 C70.827,166.151 71.079,165.563 71.584,165.051 C72.088,164.539 72.671,164.282 73.334,164.282 L73.334,164.282 Z M71.205,173.435 L75.509,173.435 L75.509,195.193 L71.205,195.193 L71.205,173.435 Z" id="Fill-4" sketch:type="MSShapeGroup"></path>
            <path d="M78.679,176.888 L86.767,168.941 L86.767,173.435 L93.649,173.435 L93.649,177.314 L86.767,177.314 L86.767,187.963 C86.767,190.449 87.8,191.693 89.865,191.693 C91.41,191.693 93.042,191.181 94.761,190.156 L94.761,194.177 C93.105,195.107 91.3,195.572 89.345,195.572 C87.374,195.572 85.734,194.996 84.426,193.845 C84.016,193.499 83.677,193.108 83.409,192.675 C83.141,192.241 82.916,191.674 82.735,190.972 C82.553,190.27 82.463,188.934 82.463,186.963 L82.463,177.314 L78.679,177.314 L78.679,176.888" id="Fill-5" sketch:type="MSShapeGroup"></path>
            <path d="M116.401,184.693 L101.099,184.693 C101.209,186.774 101.907,188.43 103.193,189.659 C104.477,190.889 106.137,191.504 108.17,191.504 C111.009,191.504 113.625,190.621 116.022,188.855 L116.022,193.065 C114.698,193.948 113.385,194.579 112.084,194.957 C110.784,195.335 109.258,195.525 107.508,195.525 C105.111,195.525 103.172,195.028 101.69,194.034 C100.208,193.041 99.022,191.705 98.131,190.026 C97.24,188.347 96.795,186.404 96.795,184.196 C96.795,180.885 97.733,178.193 99.609,176.12 C101.485,174.046 103.921,173.01 106.917,173.01 C109.802,173.01 112.105,174.018 113.823,176.037 C115.541,178.055 116.401,180.759 116.401,184.149 L116.401,184.693 L116.401,184.693 Z M101.194,182.115 L112.144,182.115 C112.033,180.397 111.521,179.072 110.606,178.141 C109.692,177.211 108.462,176.746 106.917,176.746 C105.372,176.746 104.107,177.211 103.121,178.141 C102.136,179.072 101.493,180.397 101.194,182.115 L101.194,182.115 Z" id="Fill-6" sketch:type="MSShapeGroup"></path>
            <path d="M137.379,190.108 L137.379,194.366 C135.219,195.17 133.106,195.572 131.04,195.572 C127.635,195.572 124.919,194.563 122.893,192.545 C120.867,190.526 119.854,187.822 119.854,184.432 C119.854,181.012 120.839,178.252 122.81,176.155 C124.781,174.058 127.375,173.01 130.591,173.01 C131.711,173.01 132.716,173.115 133.606,173.328 C134.497,173.542 135.597,173.94 136.906,174.523 L136.906,179.111 C134.73,177.724 132.712,177.03 130.852,177.03 C128.912,177.03 127.319,177.712 126.074,179.076 C124.828,180.439 124.206,182.178 124.206,184.29 C124.206,186.514 124.88,188.28 126.228,189.588 C127.576,190.897 129.393,191.551 131.679,191.551 C133.335,191.551 135.234,191.07 137.379,190.108" id="Fill-7" sketch:type="MSShapeGroup"></path>
            <path d="M142.18,162.154 L146.484,162.154 L146.484,176.297 C148.282,174.105 150.513,173.01 153.177,173.01 C154.628,173.01 155.929,173.372 157.08,174.097 C158.231,174.823 159.086,175.823 159.645,177.101 C160.205,178.378 160.485,180.278 160.485,182.801 L160.485,195.193 L156.181,195.193 L156.181,181.736 C156.181,180.144 155.79,178.863 155.01,177.893 C154.23,176.924 153.201,176.438 151.924,176.438 C150.978,176.438 150.087,176.684 149.251,177.172 C148.416,177.661 147.493,178.472 146.484,179.608 L146.484,195.193 L142.18,195.193 L142.18,162.154" id="Fill-8" sketch:type="MSShapeGroup"></path>
            <path d="M32.475,0.099 L32.477,127.575 L69.257,127.579 L69.257,134.894 L23.699,134.894 L23.699,0.099 L32.475,0.099" id="Fill-9" sketch:type="MSShapeGroup"></path>
            <path d="M126.341,134.892 L126.341,7.412 L32.475,7.412 L32.475,0.099 L135.119,0.099 L135.119,127.575 L126.341,134.892" id="Fill-10" sketch:type="MSShapeGroup"></path>
            <path d="M63.944,97.794 C58.381,96.195 53.744,91.725 54.118,85.562 C54.436,80.315 58.548,76.238 68.519,73.367 L68.519,73.044 C61.963,71.095 56.99,67.856 53.605,63.332 C50.218,58.81 48.524,53.782 48.524,48.254 C48.524,40.398 51.262,33.992 56.734,29.032 C62.205,24.075 70.063,21.595 80.302,21.595 L110.294,21.595 L110.294,28.101 L93.308,28.101 C100.188,34.383 103.629,40.995 103.629,47.929 C103.629,54.164 102.286,59.092 99.606,62.721 C96.923,66.354 93.726,69.518 90.015,71.17 C86.305,72.826 81.36,74.452 75.182,76.049 C69.005,77.646 66.932,78.624 65.362,80.033 C63.787,81.445 63.003,83.068 63.003,84.912 C63.003,87.077 64.019,88.813 66.052,90.111 C68.084,91.411 73.202,91.806 83.797,92.399 C94.39,92.998 102.719,95.584 106.403,99.05 C110.086,102.517 111.931,107.122 111.931,112.866 C111.931,119.64 108.977,124.963 103.072,128.838 C97.166,132.711 87.439,134.933 76.93,134.933 C74.433,134.933 58.858,134.993 57.715,134.648 C54.075,133.545 66.717,130.677 69.257,127.575 L77.133,127.575 C84.881,127.575 91.043,126.657 95.622,124.001 C100.202,121.347 102.492,117.855 102.492,113.518 C102.492,102.365 91.955,99.987 83.797,99.761 C75.621,99.538 69.058,99.266 63.944,97.794 L63.944,97.794 Z M76,67 C81.174,67 85.618,65.146 89.334,61.43 C93.046,57.716 94.904,53.273 94.904,48.097 C94.904,42.923 93.046,38.504 89.334,34.842 C85.618,31.178 81.122,29.347 75.848,29.347 C70.622,29.347 66.216,31.141 62.629,34.725 C59.043,38.312 57.249,42.667 57.249,47.788 C57.249,53.12 59.067,57.652 62.708,61.392 C66.344,65.131 70.774,67 76,67 L76,67 Z" id="Fill-11" sketch:type="MSShapeGroup"></path>
            <path d="M126.341,134.937 L135.119,127.575 L114.419,127.575 C113.869,128.009 110.766,133.234 101.7,134.933" id="Fill-12" sketch:type="MSShapeGroup"></path>
        </g>
    </g>
</svg>