<?xml version="1.0" encoding="UTF-8" standalone="no"?>
<svg width="301px" height="200px" viewBox="0 0 301 200" version="1.1" xmlns="http://www.w3.org/2000/svg" xmlns:xlink="http://www.w3.org/1999/xlink" xmlns:sketch="http://www.bohemiancoding.com/sketch/ns">
    <!-- Generator: Sketch 3.2.2 (9983) - http://www.bohemiancoding.com/sketch -->
    <title>office</title>
    <desc>Created with Sketch.</desc>
    <defs></defs>
    <g id="Page-1" stroke="none" stroke-width="1" fill="none" fill-rule="evenodd" sketch:type="MSPage">
        <g id="office" sketch:type="MSLayerGroup">
            <path d="M63.608,16.1 L82.08,1.297 L174.021,1.297 L174.021,18.035 L84.982,18.035 L84.982,41.081 L108.802,41.081 L108.802,57.819 L84.982,57.819 L84.982,94.511 L63.608,94.511 L63.608,16.1" id="Fill-1" fill="#E13D27" sketch:type="MSShapeGroup"></path>
            <path d="M113.698,1.297 L153.994,1.297 L153.994,18.035 L135.068,18.035 L135.068,41.081 L158.889,41.081 L158.889,57.819 L135.068,57.819 L135.068,94.511 L113.698,94.511 L113.698,1.297" id="Fill-2" fill="#E13D27" sketch:type="MSShapeGroup"></path>
            <path d="M165.073,1.297 L186.446,1.297 L186.446,94.511 L165.073,94.511 L165.073,1.297 Z" id="Fill-3" fill="#E13D27" sketch:type="MSShapeGroup"></path>
            <path d="M195.006,22.928 C195.006,7.995 200.673,0.267 216.507,0.267 L224.489,0.267 C243.157,0.267 248.823,5.417 248.823,16.234 L248.823,33.227 L228.223,33.227 L228.223,20.996 C228.223,18.164 226.29,17.005 222.815,17.005 C219.08,17.005 217.152,18.164 217.152,20.996 L217.152,74.814 C217.152,77.645 219.08,78.805 222.689,78.805 C226.29,78.805 228.223,77.645 228.223,74.814 L228.223,60.138 L248.823,60.138 L248.823,73.913 C248.823,90.393 242.513,95.543 224.489,95.543 L216.507,95.543 C200.673,95.543 195.006,87.688 195.006,75.583 L195.006,22.928" id="Fill-4" fill="#E13D27" sketch:type="MSShapeGroup"></path>
            <path d="M257.711,1.297 L298.783,1.297 L298.783,18.035 L279.084,18.035 L279.084,38.506 L297.367,38.506 L297.367,54.471 L279.084,54.471 L279.084,77.774 L300.328,77.774 L300.328,94.511 L257.711,94.511 L257.711,1.297" id="Fill-5" fill="#E13D27" sketch:type="MSShapeGroup"></path>
            <path d="M84.075,104.904 L126.611,104.904 L126.611,121.639 L86.975,121.639 L86.975,142.112 L105.258,142.112 L105.258,158.077 L86.975,158.077 L86.975,181.379 L114.271,181.379 L114.271,198.118 L65.603,198.118 L65.603,119.707 L84.075,104.904" id="Fill-6" fill="#E13D27" sketch:type="MSShapeGroup"></path>
            <path d="M123.358,104.904 L154.13,104.904 C169.58,104.904 177.947,110.57 177.947,127.563 L177.947,143.787 C177.947,166.058 171.122,171.595 151.938,171.595 L144.729,171.595 L144.729,198.118 L123.358,198.118 L123.358,104.904 L123.358,104.904 Z M151.038,154.858 C154.13,154.858 155.803,153.184 155.803,148.033 L155.803,125.63 C155.803,122.542 154.643,121.639 150.91,121.639 L144.729,121.639 L144.729,154.858 L151.038,154.858 L151.038,154.858 Z" id="Fill-7" fill="#E13D27" sketch:type="MSShapeGroup"></path>
            <path d="M185.49,123.056 C185.49,107.863 195.276,103.873 213.172,103.873 C231.069,103.873 240.854,107.863 240.854,123.056 L240.854,179.963 C240.854,195.158 231.069,199.146 213.172,199.146 C195.276,199.146 185.49,195.158 185.49,179.963 L185.49,123.056 L185.49,123.056 Z M218.707,124.214 C218.707,120.74 217.163,119.84 213.172,119.84 C209.18,119.84 207.636,120.74 207.636,124.214 L207.636,178.803 C207.636,182.28 209.18,183.181 213.172,183.181 C217.163,183.181 218.707,182.28 218.707,178.803 L218.707,124.214 L218.707,124.214 Z" id="Fill-8" fill="#E13D27" sketch:type="MSShapeGroup"></path>
            <path d="M262.425,121.639 L247.488,121.639 L247.488,104.904 L298.73,104.904 L298.73,121.639 L283.797,121.639 L283.797,198.118 L262.425,198.118 L262.425,121.639" id="Fill-9" fill="#E13D27" sketch:type="MSShapeGroup"></path>
            <path d="M1.613,104.904 L29.424,104.904 C49.38,104.904 55.688,109.28 55.688,139.924 L55.688,163.228 C55.688,193.871 49.38,198.118 29.424,198.118 L1.613,198.118 L1.613,104.904 L1.613,104.904 Z M22.988,181.379 L28.65,181.379 C33.289,181.379 34.316,179.318 34.316,172.368 L34.316,129.88 C34.316,122.93 33.289,120.868 28.65,120.868 L22.988,120.868 L22.988,181.379 L22.988,181.379 Z" id="Fill-10" fill="#E13D27" sketch:type="MSShapeGroup"></path>
            <path d="M82.08,1.297 L63.608,16.1 L82.08,16.1 L82.08,1.297" id="Fill-11" fill="#AE1F13" sketch:type="MSShapeGroup"></path>
            <path d="M84.075,104.904 L65.603,119.707 L84.075,119.707 L84.075,104.904" id="Fill-12" fill="#AE1F13" sketch:type="MSShapeGroup"></path>
            <path d="M28.008,0.267 C10.112,0.267 0.328,4.259 0.328,19.451 L0.328,35.27 L22.473,35.27 L22.473,20.61 C22.473,17.134 24.016,16.234 28.008,16.234 C31.997,16.234 33.543,17.134 33.543,20.61 L33.543,75.199 C33.543,78.676 31.997,79.577 28.008,79.577 C24.016,79.577 22.473,78.676 22.473,75.199 L22.473,40.912 L0.328,40.912 L0.328,76.358 C0.328,91.55 10.112,95.543 28.008,95.543 C45.902,95.543 55.688,91.55 55.688,76.358 L55.688,19.451 C55.688,4.259 45.902,0.267 28.008,0.267" id="Fill-13" fill="#E13D27" sketch:type="MSShapeGroup"></path>
        </g>
    </g>
</svg>