<?xml version="1.0" encoding="UTF-8" standalone="no"?>
<svg width="261px" height="142px" viewBox="0 0 261 142" version="1.1" xmlns="http://www.w3.org/2000/svg" xmlns:xlink="http://www.w3.org/1999/xlink" xmlns:sketch="http://www.bohemiancoding.com/sketch/ns">
    <!-- Generator: Sketch 3.2.2 (9983) - http://www.bohemiancoding.com/sketch -->
    <title>alexander</title>
    <desc>Created with Sketch.</desc>
    <defs></defs>
    <g id="Page-1" stroke="none" stroke-width="1" fill="none" fill-rule="evenodd" sketch:type="MSPage">
        <g id="alexander" sketch:type="MSLayerGroup" fill="#302F22">
            <path d="M55.714,55.567 C54.153,55.567 53.776,54.758 53.776,53.25 L53.776,24.604 L40.423,24.604 L40.423,28.914 L42.9,28.914 C44.461,28.914 44.836,29.717 44.836,31.228 L44.836,53.25 C44.836,54.758 44.461,55.567 42.9,55.567 L38.803,55.567 C36.917,55.567 36.165,54.814 35.087,51.527 L26.095,24.604 L15.325,24.604 L6.331,51.527 C5.255,54.814 4.501,55.567 2.617,55.567 L0.786,55.567 L0.786,60.306 L16.618,60.306 L16.618,55.567 L15.056,55.567 C13.603,55.567 11.717,55.406 11.717,54.544 C11.717,53.791 11.932,52.983 12.525,51.1 L13.171,48.942 L24.155,48.942 L25.287,52.823 C25.502,53.63 25.556,54.222 25.556,54.761 C25.556,55.351 24.21,55.567 22.595,55.567 L20.978,55.567 L20.978,60.306 L57.922,60.306 L57.922,55.567 L55.714,55.567 L55.714,55.567 Z M14.732,44.207 L18.556,32.627 L18.664,32.627 L22.541,44.207 L14.732,44.207 L14.732,44.207 Z" id="Fill-1" sketch:type="MSShapeGroup"></path>
            <path d="M66.704,48.942 C66.704,52.712 67.566,56.484 72.088,56.484 C73.973,56.484 77.041,55.029 77.527,51.853 L83.774,51.853 C82.911,58.314 76.612,61.115 70.796,61.115 C61.588,61.115 57.172,55.998 57.172,47.708 C57.172,39.359 63.095,34.296 70.796,34.296 C79.573,34.296 84.473,40.542 84.473,48.942 L66.704,48.942 L66.704,48.942 Z M74.943,44.636 L74.943,43.236 C74.943,40.49 73.488,38.604 70.904,38.604 C68.265,38.604 66.81,40.49 66.81,43.236 L66.81,44.636 L74.943,44.636 L74.943,44.636 Z" id="Fill-2" sketch:type="MSShapeGroup"></path>
            <path d="M101.746,39.414 L100.615,39.414 C99.969,39.414 99.269,39.467 99.269,39.951 C99.269,40.219 99.592,40.705 99.861,41.029 L102.553,43.989 L105.3,41.566 C105.892,41.029 106.215,40.596 106.215,40.06 C106.215,39.414 105.353,39.414 104.546,39.414 L104.007,39.414 L104.007,35.104 L116.985,35.104 L116.985,39.414 L115.8,39.414 C114.616,39.414 113.377,40.115 111.977,41.298 L105.408,46.898 L111.816,54.059 C112.893,55.245 114.023,55.998 115.155,55.998 L117.362,55.998 L117.362,60.306 L98.999,60.306 L98.999,55.998 L100.13,55.998 C100.939,55.998 101.638,55.945 101.638,55.245 C101.638,54.974 101.261,54.49 100.939,54.166 L98.138,51.261 L94.583,54.814 C94.314,55.138 94.154,55.351 94.154,55.567 C94.154,55.945 94.8,55.998 95.5,55.998 L96.792,55.998 L96.792,60.306 L83.545,60.306 L83.545,55.998 L84.999,55.998 C86.13,55.998 87.368,55.406 88.715,54.166 L95.339,48.029 L88.769,41.188 C87.746,40.115 86.775,39.414 85.376,39.414 L84.299,39.414 L84.299,35.104 L101.746,35.104 L101.746,39.414" id="Fill-3" sketch:type="MSShapeGroup"></path>
            <path d="M148.072,51.1 L148.072,54.059 C148.072,59.442 146.025,61.115 140.048,61.115 C137.462,61.115 134.932,59.875 134.07,57.29 C131.862,59.93 129.278,61.115 125.778,61.115 C120.662,61.115 117.486,59.124 117.486,53.63 C117.486,43.449 133.477,49.429 133.477,42.373 C133.477,38.822 131.216,37.636 128.255,37.636 C126.802,37.636 125.293,37.85 124.001,38.657 L124.001,38.768 C125.616,38.982 127.394,39.843 127.394,41.73 C127.394,44.097 125.293,45.122 123.139,45.122 C120.608,45.122 118.455,43.667 118.455,41.137 C118.455,35.159 126.584,34.296 130.947,34.296 C138.324,34.296 142.31,36.018 142.31,43.881 L142.31,53.9 C142.31,55.46 142.471,56.051 143.333,56.051 C144.517,56.051 145.11,55.351 145.11,52.337 L145.11,51.1 L148.072,51.1 L148.072,51.1 Z M133.37,47.867 C130.786,49.376 126.424,49.698 126.424,53.037 C126.424,55.245 127.823,56.051 129.493,56.051 C132.563,56.051 133.37,53.791 133.37,51.527 L133.37,47.867 L133.37,47.867 Z" id="Fill-4" sketch:type="MSShapeGroup"></path>
            <path d="M159.113,35.104 L159.113,39.25 L159.221,39.25 C161.589,35.805 164.121,34.296 168.482,34.296 C174.621,34.296 176.667,37.85 176.667,43.449 L176.667,53.684 C176.667,55.19 177.044,55.998 178.605,55.998 L180.652,55.998 L180.652,60.306 L164.659,60.306 L164.659,55.998 L165.79,55.998 C167.352,55.998 167.728,55.19 167.728,53.684 L167.728,44.42 C167.728,41.298 167.244,39.143 163.582,39.143 C161.106,39.143 159.544,41.458 159.544,43.72 L159.544,53.684 C159.544,55.19 159.921,55.998 161.482,55.998 L162.774,55.998 L162.774,60.306 L146.512,60.306 L146.512,55.998 L148.665,55.998 C150.228,55.998 150.605,55.19 150.605,53.684 L150.605,41.73 C150.605,40.219 150.228,39.414 148.665,39.414 L146.459,39.414 L146.459,35.104 L159.113,35.104" id="Fill-5" sketch:type="MSShapeGroup"></path>
            <path d="M198.092,56.373 L197.985,56.373 C196.423,59.66 193.623,61.115 190.177,61.115 C182.046,61.115 179.623,54.275 179.623,47.708 C179.623,41.137 182.046,34.296 190.177,34.296 C193.408,34.296 196.423,35.536 197.554,37.907 L197.661,37.796 L197.661,30.311 C197.661,28.804 197.284,27.998 195.723,27.998 L193.515,27.998 L193.515,23.688 L206.6,23.688 L206.6,53.684 C206.6,55.19 206.978,55.998 208.539,55.998 L210.64,55.998 L210.64,60.306 L198.092,60.306 L198.092,56.373 L198.092,56.373 Z M197.661,47.49 C197.661,42.214 196.423,38.928 193.408,38.928 C190.392,38.928 189.153,42.214 189.153,47.49 C189.153,52.768 190.392,56.104 193.408,56.104 C196.423,56.104 197.661,52.768 197.661,47.49 L197.661,47.49 Z" id="Fill-6" sketch:type="MSShapeGroup"></path>
            <path d="M218.78,48.942 C218.78,52.712 219.642,56.484 224.166,56.484 C226.05,56.484 229.119,55.029 229.604,51.853 L235.85,51.853 C234.99,58.314 228.688,61.115 222.873,61.115 C213.666,61.115 209.249,55.998 209.249,47.708 C209.249,39.359 215.173,34.296 222.873,34.296 C231.651,34.296 236.551,40.542 236.551,48.942 L218.78,48.942 L218.78,48.942 Z M227.02,44.636 L227.02,43.236 C227.02,40.49 225.566,38.604 222.982,38.604 C220.342,38.604 218.889,40.49 218.889,43.236 L218.889,44.636 L227.02,44.636 L227.02,44.636 Z" id="Fill-7" sketch:type="MSShapeGroup"></path>
            <path d="M235.531,35.104 L248.239,35.104 L248.239,39.414 L248.347,39.414 C249.424,36.827 251.47,34.296 254.648,34.296 C257.985,34.296 260.786,36.881 260.786,40.436 C260.786,42.753 259.008,45.227 256.478,45.227 C254.216,45.227 252.171,44.152 252.171,41.674 C252.171,39.843 253.193,38.712 254.97,38.389 C254.432,37.85 253.947,37.796 253.247,37.796 C250.448,37.796 248.616,41.406 248.616,44.042 L248.616,53.684 C248.616,55.19 248.994,55.998 250.555,55.998 L252.763,55.998 L252.763,60.306 L235.531,60.306 L235.531,55.998 L237.738,55.998 C239.3,55.998 239.678,55.19 239.678,53.684 L239.678,41.73 C239.678,40.219 239.3,39.414 237.738,39.414 L235.531,39.414 L235.531,35.104" id="Fill-8" sketch:type="MSShapeGroup"></path>
            <path d="M6.01,85.42 C6.01,84.073 5.255,83.266 3.909,83.266 L0.84,83.266 L0.84,78.527 L24.048,78.527 C31.803,78.527 35.464,82.026 35.464,86.873 C35.464,91.668 32.126,94.305 27.764,95.327 L27.764,95.436 C32.341,96.837 37.186,98.183 37.186,104.643 C37.186,111.536 33.094,114.228 22.649,114.228 L0.893,114.228 L0.893,109.49 L3.909,109.49 C5.255,109.49 6.01,108.684 6.01,107.337 L6.01,85.42 L6.01,85.42 Z M16.133,93.337 L19.095,93.337 C22.756,93.337 25.341,92.206 25.341,88.274 C25.341,84.342 22.756,83.266 19.095,83.266 L16.133,83.266 L16.133,93.337 L16.133,93.337 Z M16.133,109.49 L19.74,109.49 C23.563,109.49 26.579,108.414 26.579,103.781 C26.579,99.153 23.563,98.073 19.74,98.073 L16.133,98.073 L16.133,109.49 L16.133,109.49 Z" id="Fill-9" sketch:type="MSShapeGroup"></path>
            <path d="M65.396,101.627 C65.396,110.243 59.526,115.035 51.502,115.035 C43.478,115.035 37.611,110.243 37.611,101.627 C37.611,93.011 43.478,88.222 51.502,88.222 C59.526,88.222 65.396,93.011 65.396,101.627 L65.396,101.627 Z M47.141,101.627 C47.141,107.983 48.271,110.726 51.502,110.726 C54.734,110.726 55.864,107.983 55.864,101.627 C55.864,95.274 54.734,92.529 51.502,92.529 C48.271,92.529 47.141,95.274 47.141,101.627 L47.141,101.627 Z" id="Fill-10" sketch:type="MSShapeGroup"></path>
            <path d="M92.107,101.627 C92.107,110.243 86.237,115.035 78.214,115.035 C70.191,115.035 64.321,110.243 64.321,101.627 C64.321,93.011 70.191,88.222 78.214,88.222 C86.237,88.222 92.107,93.011 92.107,101.627 L92.107,101.627 Z M73.852,101.627 C73.852,107.983 74.983,110.726 78.214,110.726 C81.444,110.726 82.576,107.983 82.576,101.627 C82.576,95.274 81.444,92.529 78.214,92.529 C74.983,92.529 73.852,95.274 73.852,101.627 L73.852,101.627 Z" id="Fill-11" sketch:type="MSShapeGroup"></path>
            <path d="M94.06,85.151 C94.06,83.643 93.682,82.836 92.12,82.836 L90.182,82.836 L90.182,78.527 L102.997,78.527 L102.997,100.66 L109.729,95.274 C110.429,94.735 110.591,94.142 110.591,93.927 C110.591,93.496 110.052,93.337 109.406,93.337 L106.713,93.337 L106.713,89.028 L122.438,89.028 L122.438,93.337 L121.036,93.337 C119.583,93.337 119.045,93.551 118.237,94.197 L113.659,97.858 L120.283,108.52 C120.929,109.545 121.629,109.921 122.813,109.921 L124.16,109.921 L124.16,114.228 L107.844,114.228 L107.844,109.921 L109.351,109.921 C110.213,109.921 110.429,109.651 110.429,109.222 C110.429,108.843 110.267,108.469 109.998,108.037 L107.089,103.188 L102.997,106.637 L102.997,107.606 C102.997,109.437 103.373,109.921 104.936,109.921 L105.798,109.921 L105.798,114.228 L90.128,114.228 L90.128,109.921 L92.12,109.921 C93.682,109.921 94.06,109.112 94.06,107.606 L94.06,85.151" id="Fill-12" sketch:type="MSShapeGroup"></path>
            <path d="M166.65,78.042 L171.495,78.042 L171.495,92.687 L166.487,92.687 C166.487,87.145 163.472,82.458 157.388,82.458 C151.411,82.458 148.18,86.768 148.18,96.35 C148.18,104.86 150.28,110.298 157.819,110.298 C163.472,110.298 166.487,105.613 166.487,100.607 L171.495,100.607 C171.335,110.514 165.465,115.307 155.504,115.307 C144.357,115.307 136.495,108.952 136.495,96.35 C136.495,84.935 144.357,77.449 154.804,77.449 C157.496,77.449 163.203,78.797 165.572,81.06 L166.65,78.042" id="Fill-13" sketch:type="MSShapeGroup"></path>
            <path d="M199.607,101.627 C199.607,110.243 193.738,115.035 185.714,115.035 C177.69,115.035 171.822,110.243 171.822,101.627 C171.822,93.011 177.69,88.222 185.714,88.222 C193.738,88.222 199.607,93.011 199.607,101.627 L199.607,101.627 Z M181.353,101.627 C181.353,107.983 182.484,110.726 185.714,110.726 C188.946,110.726 190.076,107.983 190.076,101.627 C190.076,95.274 188.946,92.529 185.714,92.529 C182.484,92.529 181.353,95.274 181.353,101.627 L181.353,101.627 Z" id="Fill-14" sketch:type="MSShapeGroup"></path>
            <path d="M210.163,110.514 C210.163,112.991 208.065,114.982 205.641,114.982 C203.218,114.982 201.171,112.991 201.171,110.514 C201.171,108.037 203.218,105.99 205.641,105.99 C208.065,105.99 210.163,108.037 210.163,110.514" id="Fill-15" sketch:type="MSShapeGroup"></path>
            <path d="M0.813,136.843 L260.76,136.843 L260.76,141.388 L0.813,141.388 L0.813,136.843 Z" id="Fill-16" sketch:type="MSShapeGroup"></path>
            <path d="M0.813,0.501 L260.76,0.501 L260.76,5.046 L0.813,5.046 L0.813,0.501 Z" id="Fill-17" sketch:type="MSShapeGroup"></path>
        </g>
    </g>
</svg>