<?xml version="1.0" encoding="UTF-8" standalone="no"?>
<svg width="274px" height="218px" viewBox="0 0 274 218" version="1.1" xmlns="http://www.w3.org/2000/svg" xmlns:xlink="http://www.w3.org/1999/xlink" xmlns:sketch="http://www.bohemiancoding.com/sketch/ns">
    <!-- Generator: Sketch 3.2.2 (9983) - http://www.bohemiancoding.com/sketch -->
    <title>cowgirl</title>
    <desc>Created with Sketch.</desc>
    <defs></defs>
    <g id="Page-1" stroke="none" stroke-width="1" fill="none" fill-rule="evenodd" sketch:type="MSPage">
        <g id="cowgirl" sketch:type="MSLayerGroup" fill="#3F1402">
            <path d="M19.606,187.916 C20.889,191.355 17.604,195.205 15.448,196.745 C11.803,199.363 7.492,199.311 4.72,197.822 C2.41,196.591 0.408,193.408 0.305,189.199 C0.1,178.317 9.237,169.026 14.986,166.819 C17.758,165.741 20.273,165.536 21.916,166.973 C23.044,167.948 24.225,169.437 24.636,170.72 C25.098,172.209 24.944,173.646 24.174,175.237 C23.404,176.828 22.685,178.83 22.121,180.319 C21.967,180.729 21.607,181.038 20.992,180.627 C19.811,179.857 18.99,178.266 19.759,175.699 C20.581,172.978 22.429,170.053 21.248,168.821 C19.811,167.281 12.009,171.439 7.389,179.087 C2.872,186.581 3.385,194.178 5.9,196.231 C9.185,198.9 14.627,195.461 18.528,187.813 C18.784,187.249 19.349,187.249 19.606,187.916" id="Fill-1" sketch:type="MSShapeGroup"></path>
            <path d="M61.39,189.558 C57.848,195.307 54.255,199.209 50.919,199.157 C48.763,199.106 47.479,197.155 47.685,195 C45.991,197.053 43.886,199.106 41.422,198.9 C38.292,198.644 37.727,195.359 39.01,191.611 C39.472,190.226 40.088,188.84 40.909,187.146 C39.37,187.916 37.778,188.172 36.29,188.121 C35.16,192.433 32.029,197.515 28.282,198.695 C26.434,199.26 23.919,199.209 21.866,196.488 C19.556,193.46 20.377,189.045 22.636,184.938 C24.586,181.397 27.769,178.522 30.849,178.317 C32.388,178.214 33.261,178.574 34.339,180.062 C35.468,181.602 37.008,181.91 36.752,185.709 C36.752,186.016 36.7,186.376 36.649,186.735 C39.626,186.633 42.398,184.323 44.194,181.397 C44.708,180.575 45.478,179.446 46.043,178.625 C46.453,178.009 46.966,178.111 47.326,178.574 C48.506,180.216 48.25,182.423 46.402,185.452 C44.554,188.48 43.322,190.739 42.295,193.203 C41.269,195.718 41.32,197.463 42.449,197.412 C44.451,197.36 46.35,194.024 49.122,189.558 C52.407,184.323 53.896,180.832 55.487,178.625 C55.949,177.958 56.36,177.804 56.771,178.317 C57.541,179.189 57.951,181.448 56.668,184.015 C55.539,186.273 53.075,190.226 51.792,192.895 C50.405,195.769 50.508,197.617 51.945,197.617 C53.845,197.617 56.924,194.178 59.594,189.353 C60.518,181.653 63.957,178.317 64.983,178.111 C65.702,177.958 66.061,178.625 65.805,179.908 C65.445,181.961 64.675,184.22 61.39,189.558 L61.39,189.558 Z M29.719,182.116 C28.282,183.245 26.793,185.041 25.715,186.992 C23.56,190.842 22.79,195.513 24.124,196.642 C25.51,197.822 28.693,196.026 31.157,191.355 C31.978,189.815 32.594,188.429 33.056,187.146 C31.31,186.222 29.719,184.22 29.719,182.116 L29.719,182.116 Z M33.723,182.013 C33.569,180.421 32.388,180.729 32.183,182.218 C31.978,183.553 32.44,184.836 33.415,185.709 C33.826,184.22 33.826,182.937 33.723,182.013 L33.723,182.013 Z" id="Fill-2" sketch:type="MSShapeGroup"></path>
            <path d="M73.354,200.492 C70.53,207.37 66.886,215.532 62.728,217.174 C61.701,217.585 60.675,217.431 59.75,216.096 C58.673,214.556 57.749,212.76 58.724,209.731 C60.213,205.111 64.627,201.98 69.709,200.03 C70.222,198.9 70.684,197.668 71.197,196.488 C69.709,197.977 67.912,199.055 66.013,199.055 C61.291,199.055 60.367,192.638 64.524,186.478 C68.528,180.524 72.686,178.214 75.304,178.214 C77.357,178.214 78.384,179.806 78.333,181.602 C78.948,180.575 79.513,179.652 80.026,178.779 C80.437,178.06 80.95,178.009 81.31,178.471 C82.08,179.395 82.49,181.602 81.207,184.117 C79.667,187.197 76.433,193.408 74.277,198.387 C78.589,196.231 81.412,193.408 83.465,190.688 C83.773,190.277 84.235,190.277 84.338,190.79 C84.441,191.252 84.184,192.382 83.312,193.768 C81.31,196.899 77.614,198.952 73.354,200.492 L73.354,200.492 Z M60.777,214.3 C61.445,215.275 65.5,209.937 68.836,202.134 C62.163,206.036 59.905,213.068 60.777,214.3 L60.777,214.3 Z M76.074,180.832 C74.482,180.729 70.735,184.015 67.912,188.48 C65.141,192.895 64.576,197.412 66.629,197.463 C68.631,197.515 71.249,194.281 73.867,189.764 C77.101,184.117 77.563,180.935 76.074,180.832 L76.074,180.832 Z" id="Fill-3" sketch:type="MSShapeGroup"></path>
            <path d="M104.769,178.83 C105.384,178.368 105.898,178.163 106.309,178.676 C107.232,179.754 108.464,182.167 106.976,183.86 C104.563,186.633 102.048,190.123 101.175,192.844 C100.252,195.615 100.816,197.771 102.459,197.822 C104.512,197.874 107.13,194.537 108.773,190.688 C108.978,190.226 109.337,190.226 109.543,190.688 C109.799,191.252 109.902,192.536 109.286,194.024 C108.002,197.104 104.922,199.26 102.099,199.209 C98.198,199.106 96.607,195.615 97.941,191.458 C99.019,187.967 102.253,184.066 104.46,181.602 C102.151,183.142 99.841,183.655 98.147,183.655 C94.964,190.944 89.832,198.49 84.236,199.106 C80.284,199.516 79.257,195.872 80.592,191.663 C82.132,186.889 86.136,180.678 87.213,179.189 C87.675,178.574 88.035,178.42 88.445,178.882 C89.215,179.703 89.523,181.961 88.394,184.528 C87.419,186.787 85.315,189.712 83.979,192.946 C82.748,195.872 82.902,197.822 84.544,197.617 C87.881,197.206 93.271,191.304 96.145,183.347 C92.192,181.859 97.223,174.878 99.379,174.826 C101.022,174.775 100.354,178.009 99.122,181.243 C100.97,181.038 102.818,180.165 104.769,178.83 L104.769,178.83 Z M92.09,178.214 C91.474,178.984 89.985,178.83 89.215,177.444 C88.445,176.058 88.651,174.57 89.472,173.697 C90.294,172.825 91.782,173.44 92.449,174.826 C93.065,176.11 92.655,177.496 92.09,178.214 L92.09,178.214 Z" id="Fill-4" sketch:type="MSShapeGroup"></path>
            <path d="M110.878,197.617 C113.342,197.822 116.936,194.127 118.938,190.174 C119.297,189.507 119.861,189.455 120.067,190.174 C120.324,190.996 120.118,192.125 119.554,193.357 C118.835,194.897 115.088,199.157 110.981,199.055 C107.44,198.952 105.541,196.488 106.721,190.944 C108.62,182.013 114.472,172.722 119.707,167.281 C120.478,166.46 121.196,166.357 121.915,167.024 C123.403,168.359 123.711,170.258 123.095,172.671 C121.504,178.984 115.755,185.144 111.186,188.121 C109.133,193.151 108.569,197.412 110.878,197.617 L110.878,197.617 Z M121.35,171.593 C120.683,171.182 116.884,176.88 113.342,183.45 C112.88,184.271 112.47,185.093 112.111,185.914 C119.143,180.216 122.018,172.003 121.35,171.593 L121.35,171.593 Z" id="Fill-5" sketch:type="MSShapeGroup"></path>
            <path d="M146.143,187.916 C147.426,191.355 144.141,195.205 141.985,196.745 C138.341,199.363 134.029,199.311 131.257,197.822 C128.947,196.591 126.945,193.408 126.843,189.199 C126.638,178.317 135.774,169.026 141.523,166.819 C144.295,165.741 146.81,165.536 148.453,166.973 C149.583,167.948 150.763,169.437 151.173,170.72 C151.635,172.209 151.481,173.646 150.711,175.237 C149.941,176.828 149.223,178.83 148.658,180.319 C148.504,180.729 148.145,181.038 147.529,180.627 C146.349,179.857 145.527,178.266 146.297,175.699 C147.119,172.978 148.966,170.053 147.786,168.821 C146.349,167.281 138.546,171.439 133.926,179.087 C129.409,186.581 129.923,194.178 132.438,196.231 C135.723,198.9 141.164,195.461 145.065,187.813 C145.322,187.249 145.886,187.249 146.143,187.916" id="Fill-6" sketch:type="MSShapeGroup"></path>
            <path d="M160.568,179.806 C161.184,179.395 161.595,179.292 161.954,179.703 C162.929,180.781 164.161,183.039 162.673,184.733 C160.363,187.351 157.848,190.585 157.026,193.254 C156.205,195.923 156.821,197.925 158.31,197.977 C160.311,198.079 162.775,194.897 164.418,191.201 C164.623,190.79 164.931,190.739 165.137,191.15 C165.393,191.714 165.444,192.946 164.88,194.332 C163.699,197.309 160.722,199.465 158.001,199.363 C154.306,199.209 152.817,195.821 154.101,191.971 C155.23,188.583 158.207,184.938 160.26,182.577 C158.001,184.066 155.794,184.528 154.254,184.528 C152.304,188.121 147.376,195.41 146.401,200.081 C146.298,200.543 145.99,200.8 145.528,200.338 C144.04,198.798 144.04,196.437 145.426,193.819 C146.606,191.56 150.045,186.735 151.945,184.015 C149.019,182.116 153.484,176.058 155.384,176.007 C156.975,175.956 156.564,178.933 155.281,182.167 C156.924,181.961 158.669,181.14 160.568,179.806" id="Fill-7" sketch:type="MSShapeGroup"></path>
            <path d="M168.73,197.72 C172.991,197.925 176.738,193.819 178.945,190.431 C179.202,190.02 179.613,190.02 179.818,190.482 C180.023,190.893 179.869,192.33 178.945,193.665 C176.79,196.796 172.837,199.157 168.884,199.209 C162.366,199.311 160.107,192.895 163.443,186.273 C166.78,179.652 172.016,176.982 174.582,178.471 C175.866,179.241 176.79,180.011 177.611,181.14 C178.535,182.372 178.124,185.503 175.968,188.121 C173.453,191.201 170.014,192.536 166.42,189.61 C164.778,194.332 166.01,197.566 168.73,197.72 L168.73,197.72 Z M172.991,185.914 C174.633,183.758 175.763,181.089 175.044,180.524 C173.966,179.652 169.706,182.731 167.293,187.608 C167.139,187.916 166.985,188.224 166.883,188.48 C169.398,190.072 171.502,187.865 172.991,185.914 L172.991,185.914 Z" id="Fill-8" sketch:type="MSShapeGroup"></path>
            <path d="M194.551,178.574 C195.013,177.906 195.423,177.804 195.783,178.266 C196.553,179.189 196.963,181.397 195.731,183.963 C194.602,186.273 192.036,190.123 190.804,192.844 C189.521,195.718 189.469,197.925 191.214,197.822 C193.319,197.72 196.142,194.229 197.939,190.688 C198.195,190.226 198.555,190.174 198.76,190.636 C198.965,191.098 198.965,192.382 198.298,193.819 C196.963,196.642 193.729,199.465 190.906,199.311 C188.134,199.157 186.697,197.515 186.697,195.102 C185.055,197.206 182.745,199.106 180.281,199.106 C175.507,199.106 174.532,192.587 178.793,186.376 C182.95,180.319 187.005,178.009 189.572,178.009 C191.779,178.009 192.806,179.703 192.703,181.705 C193.37,180.473 193.986,179.395 194.551,178.574 L194.551,178.574 Z M190.444,180.678 C188.802,180.524 185.055,183.86 182.231,188.429 C179.511,192.844 178.844,197.36 180.846,197.412 C182.95,197.463 185.619,194.178 188.237,189.661 C191.471,184.015 191.933,180.832 190.444,180.678 L190.444,180.678 Z" id="Fill-9" sketch:type="MSShapeGroup"></path>
            <path d="M210.978,178.214 C212.723,178.266 213.647,180.986 212.98,183.245 C215.443,180.832 218.882,178.42 220.577,178.471 C222.424,178.522 222.835,181.551 221.808,184.117 C220.884,186.427 218.369,189.815 217.086,192.382 C215.649,195.307 216.367,197.668 218.215,197.617 C220.32,197.566 222.629,194.178 224.631,190.585 C224.888,190.123 225.299,190.123 225.556,190.482 C225.812,190.842 225.658,192.536 225.093,193.716 C223.656,196.642 220.371,199.209 217.394,199.209 C212.928,199.209 211.286,195.667 213.185,191.458 C215.084,187.197 219.652,181.448 218.882,181.191 C218.472,181.038 216.727,181.602 213.39,184.938 C209.13,189.199 206.615,194.127 204.459,198.952 C204.151,199.568 203.74,199.722 203.278,199.209 C202.405,198.438 201.687,196.437 203.175,192.741 C204.869,188.48 210.413,181.397 209.386,181.038 C208.771,180.781 206.255,182.167 202.97,185.76 C199.941,189.045 197.478,193.819 195.424,198.644 C195.219,199.106 194.911,199.311 194.449,198.9 C193.32,197.925 193.063,196.231 193.936,193.614 C195.014,190.38 198.761,183.142 201.995,178.317 C202.354,177.752 202.765,177.804 203.073,178.317 C203.945,179.754 203.792,181.756 203.022,183.809 C205.28,181.191 209.13,178.163 210.978,178.214" id="Fill-10" sketch:type="MSShapeGroup"></path>
            <path d="M248.913,199.157 C245.011,198.952 243.472,195.461 244.755,191.304 C245.833,187.865 248.913,184.066 251.12,181.602 C248.861,183.039 246.551,183.553 244.96,183.553 C240.7,192.484 235.156,198.952 229.047,199.055 C222.529,199.157 220.321,192.792 223.658,186.222 C226.892,179.857 232.127,176.982 234.694,178.471 C235.977,179.241 236.901,179.96 237.723,181.089 C238.595,182.321 238.081,185.349 236.029,187.967 C233.616,191.098 230.177,192.382 226.583,189.507 C224.941,194.178 226.225,197.515 228.842,197.617 C234.489,197.874 240.135,189.764 242.958,183.245 C239.006,181.602 244.036,174.775 246.192,174.672 C247.783,174.621 247.27,177.752 245.987,181.089 C247.783,180.832 249.58,180.011 251.581,178.676 C252.198,178.266 252.66,178.009 253.019,178.522 C254.045,179.652 255.329,182.116 253.789,183.809 C251.376,186.478 248.758,189.969 247.886,192.741 C247.013,195.564 247.629,197.617 249.169,197.668 C251.325,197.771 253.943,194.383 255.585,190.585 C255.791,190.174 256.15,190.072 256.355,190.534 C256.612,191.098 256.715,192.433 256.099,193.87 C254.815,196.95 251.736,199.311 248.913,199.157 L248.913,199.157 Z M233.102,185.863 C234.745,183.758 235.823,181.089 235.156,180.524 C234.027,179.549 229.817,182.783 227.456,187.505 C227.302,187.762 227.2,188.121 227.046,188.378 C229.561,189.918 231.563,187.813 233.102,185.863 L233.102,185.863 Z" id="Fill-11" sketch:type="MSShapeGroup"></path>
            <path d="M263.133,200.286 C260.258,207.165 256.614,215.429 252.354,217.072 C251.378,217.431 250.403,217.431 249.428,215.994 C248.401,214.454 247.375,212.657 248.401,209.628 C249.941,205.009 254.304,201.929 259.386,199.927 C259.899,198.747 260.413,197.463 260.977,196.231 C259.386,197.874 257.435,199.209 255.382,199.055 C251.686,198.747 251.583,195 252.764,191.611 C253.894,188.326 256.409,183.245 259.745,178.625 C260.156,178.06 260.669,178.111 261.028,178.625 C262.26,180.268 261.952,182.423 260.053,185.452 C258.205,188.429 257.076,190.534 256.101,192.946 C255.074,195.461 255.177,197.258 256.357,197.36 C258.359,197.515 260.926,194.229 263.544,189.764 C265.751,185.965 267.958,181.345 269.754,178.727 C270.216,178.06 270.576,177.958 271.038,178.368 C271.756,179.292 272.167,181.5 270.833,184.117 C269.292,187.094 266.162,193.254 264.005,198.233 C268.009,196.077 271.038,193.151 273.091,190.328 C273.348,189.969 273.81,189.918 273.913,190.431 C274.015,190.893 273.861,192.073 272.988,193.408 C270.986,196.591 267.394,198.541 263.133,200.286 L263.133,200.286 Z M250.454,214.249 C251.122,215.224 255.331,209.628 258.513,202.083 C251.84,205.933 249.53,212.965 250.454,214.249 L250.454,214.249 Z" id="Fill-12" sketch:type="MSShapeGroup"></path>
            <path d="M187.396,46.98 C183.706,46.215 179.909,46.709 176.179,46.865 C173.924,46.959 171.499,47.021 169.384,46.12 C167.181,45.182 168.162,39.417 168.183,37.68 C168.323,26.103 170.751,14.373 167.478,3.011 C166.948,1.172 164.665,1.453 164.029,3.011 C159.943,13.017 156.217,23.166 151.688,32.986 C150.483,35.596 149.181,40.66 146.188,41.705 C141.962,43.181 134.384,41.966 130.173,40.85 C126.245,39.809 123.314,33.616 121.199,30.69 C118.307,26.689 115.427,22.684 112.676,18.583 C108.805,12.812 106.494,4.019 99.951,0.659 C98.785,0.061 97.227,0.783 97.259,2.203 C97.597,17.096 103.995,30.642 108.189,44.694 C96.802,47.323 85.016,44.878 73.558,47.3 C71.638,47.707 72.084,50.148 73.558,50.751 C80.915,53.757 88.961,54.828 96.471,57.426 C100.899,58.959 105.543,61.185 108.176,65.224 C111.432,70.22 109.872,79.033 109.402,84.623 C108.63,93.82 106.909,103.959 108.548,113.13 C110.148,122.09 120.361,122.885 127.75,122.84 C135.584,122.791 143.744,123.082 151.5,121.939 C160.132,120.667 160.907,114.213 160.323,106.542 C159.508,95.821 159.909,86.044 162.05,75.411 C163.248,69.461 165.005,62.035 170.856,59.089 C176.621,56.185 182.487,53.982 187.823,50.249 C188.985,49.436 189.04,47.321 187.396,46.98 L187.396,46.98 Z M162.294,63.054 C157.86,71.57 157.159,75.358 156.221,84.75 C155.766,89.315 156.103,97.447 156.586,102 C157.165,107.458 158.217,98.315 151.748,99.946 C143.886,101.929 134.326,100.91 126.224,100.961 C120.452,100.997 113.697,109.738 111.997,103.298 C110.86,98.99 111.71,90.167 111.982,85.791 C112.636,75.302 115.285,76.079 112.339,65.784 C109.219,54.878 94.272,53.573 82.786,50.875 C92.178,50.344 101.663,50.298 110.909,47.704 C111.383,47.57 111.705,47.304 111.909,46.979 C112.196,46.603 112.327,46.102 112.157,45.504 C108.438,32.373 104.398,19.699 103.125,6.028 C105.877,9.024 107.252,13.402 109.333,16.806 C112.647,22.227 114.389,27.354 118.11,32.496 C120.657,36.015 123.044,40.132 126.485,42.875 C129.131,44.982 132.769,43.566 135.962,43.875 C144.476,44.7 149.497,46.277 153.122,38.254 C157.398,28.787 162.842,19.208 166.745,9.6 C168.315,21.339 165.074,33.308 166.167,45.116 C166.746,51.373 173.646,51.841 180.213,51.438 C173.373,54.715 165.885,56.159 162.294,63.054 L162.294,63.054 Z" id="Fill-13" sketch:type="MSShapeGroup"></path>
        </g>
    </g>
</svg>