<?xml version="1.0" encoding="UTF-8" standalone="no"?>
<svg width="221px" height="309px" viewBox="0 0 221 309" version="1.1" xmlns="http://www.w3.org/2000/svg" xmlns:xlink="http://www.w3.org/1999/xlink" xmlns:sketch="http://www.bohemiancoding.com/sketch/ns">
    <!-- Generator: Sketch 3.2.2 (9983) - http://www.bohemiancoding.com/sketch -->
    <title>fuji</title>
    <desc>Created with Sketch.</desc>
    <defs></defs>
    <g id="Page-1" stroke="none" stroke-width="1" fill="none" fill-rule="evenodd" sketch:type="MSPage">
        <g id="fuji" sketch:type="MSLayerGroup">
            <path d="M38.08,271.27 L38.08,277.331 L24.98,277.331 L24.98,285.961 L37.309,285.961 L37.309,292.022 L24.98,292.022 L24.98,307.947 L17.583,307.947 L17.583,271.27 L38.08,271.27" id="Fill-1" fill="#F92B2B" sketch:type="MSShapeGroup"></path>
            <path d="M47.275,296.852 C47.275,297.776 47.334,298.624 47.455,299.395 C47.574,300.165 47.797,300.833 48.123,301.397 C48.448,301.963 48.893,302.408 49.458,302.733 C50.023,303.06 50.734,303.222 51.59,303.222 C52.48,303.222 53.199,303.06 53.748,302.733 C54.295,302.408 54.731,301.963 55.058,301.397 C55.382,300.833 55.605,300.165 55.725,299.395 C55.845,298.624 55.905,297.776 55.905,296.852 L55.905,271.27 L63.302,271.27 L63.302,296.852 C63.302,299.181 62.977,301.107 62.326,302.631 C61.675,304.154 60.802,305.362 59.707,306.252 C58.61,307.143 57.36,307.742 55.957,308.05 C54.552,308.358 53.097,308.513 51.59,308.513 C50.082,308.513 48.627,308.375 47.224,308.102 C45.819,307.828 44.569,307.271 43.474,306.432 C42.377,305.593 41.504,304.402 40.853,302.861 C40.203,301.32 39.878,299.317 39.878,296.852 L39.878,271.27 L47.275,271.27 L47.275,296.852" id="Fill-2" fill="#F92B2B" sketch:type="MSShapeGroup"></path>
            <path d="M85.905,297.673 C85.905,301.577 84.997,304.36 83.182,306.021 C81.367,307.683 78.593,308.513 74.86,308.513 C72.908,308.513 71.307,308.247 70.057,307.716 C68.807,307.186 67.814,306.432 67.078,305.456 C66.341,304.479 65.836,303.342 65.562,302.04 C65.288,300.738 65.151,299.368 65.151,297.93 L65.151,296.338 L71.932,296.338 L71.932,297.468 C71.932,299.42 72.146,300.867 72.574,301.809 C73.002,302.751 73.884,303.222 75.22,303.222 C76.556,303.222 77.437,302.751 77.865,301.809 C78.293,300.867 78.508,299.42 78.508,297.468 L78.508,271.27 L85.905,271.27 L85.905,297.673" id="Fill-3" fill="#F92B2B" sketch:type="MSShapeGroup"></path>
            <path d="M90.066,271.27 L97.463,271.27 L97.463,307.948 L90.066,307.948 L90.066,271.27 Z" id="Fill-4" fill="#F92B2B" sketch:type="MSShapeGroup"></path>
            <path d="M133.729,271.27 L133.729,277.331 L120.63,277.331 L120.63,285.961 L132.959,285.961 L132.959,292.022 L120.63,292.022 L120.63,307.947 L113.232,307.947 L113.232,271.27 L133.729,271.27" id="Fill-5" fill="#F92B2B" sketch:type="MSShapeGroup"></path>
            <path d="M136.349,271.27 L143.746,271.27 L143.746,307.948 L136.349,307.948 L136.349,271.27 Z" id="Fill-6" fill="#F92B2B" sketch:type="MSShapeGroup"></path>
            <path d="M148.215,271.27 L155.613,271.27 L155.613,301.886 L168.712,301.886 L168.712,307.947 L148.215,307.947 L148.215,271.27" id="Fill-7" fill="#F92B2B" sketch:type="MSShapeGroup"></path>
            <path d="M182.12,271.27 L187.359,297.159 L187.462,297.159 L192.753,271.27 L203.695,271.27 L203.695,307.947 L196.914,307.947 L196.914,278.666 L196.811,278.666 L190.288,307.947 L184.534,307.947 L178.01,278.666 L177.907,278.666 L177.907,307.947 L171.127,307.947 L171.127,271.27 L182.12,271.27" id="Fill-8" fill="#F92B2B" sketch:type="MSShapeGroup"></path>
            <path d="M217.123,172.662 L217.123,72.275 C217.123,51.346 200.153,34.375 179.219,34.375 L42.52,34.375 C21.586,34.375 4.617,51.346 4.617,72.275 L4.617,172.662 L110.87,77.039 L217.123,172.662" id="Fill-9" fill="#1EC9F8" sketch:type="MSShapeGroup"></path>
            <path d="M220.745,180.795 L110.87,81.91 L0.994,180.795 L0.994,72.275 C0.994,49.379 19.624,30.752 42.52,30.752 L179.219,30.752 C202.117,30.752 220.745,49.379 220.745,72.275 L220.745,180.795 L220.745,180.795 Z M110.87,72.164 L213.5,164.529 L213.5,72.275 C213.5,53.375 198.123,37.998 179.219,37.998 L42.52,37.998 C23.618,37.998 8.239,53.375 8.239,72.275 L8.239,164.529 L110.87,72.164 L110.87,72.164 Z" id="Fill-10" fill="#FFFFFF" sketch:type="MSShapeGroup"></path>
            <path d="M185.36,78.885 C185.36,37.744 152.009,4.395 110.87,4.395 C69.73,4.395 36.379,37.744 36.379,78.885 C36.379,120.023 69.73,153.373 110.87,153.373 C152.009,153.373 185.36,120.023 185.36,78.885" id="Fill-11" fill="#F92B2B" sketch:type="MSShapeGroup"></path>
            <path d="M110.87,156.994 C67.797,156.994 32.756,121.953 32.756,78.885 C32.756,35.814 67.797,0.773 110.87,0.773 C153.941,0.773 188.981,35.814 188.981,78.885 C188.981,121.953 153.941,156.994 110.87,156.994 L110.87,156.994 Z M110.87,8.016 C71.794,8.016 40.001,39.807 40.001,78.885 C40.001,117.961 71.794,149.752 110.87,149.752 C149.945,149.752 181.738,117.961 181.738,78.885 C181.738,39.807 149.945,8.016 110.87,8.016 L110.87,8.016 Z" id="Fill-12" fill="#FFFFFF" sketch:type="MSShapeGroup"></path>
            <path d="M167.132,127.672 C153.477,143.408 133.341,153.373 110.87,153.373 C88.398,153.373 68.262,143.408 54.606,127.672 L4.617,172.662 L4.617,208.982 C4.617,229.914 21.586,246.881 42.52,246.881 L179.219,246.881 C200.153,246.881 217.123,229.914 217.123,208.982 L217.123,172.662 L167.132,127.672" id="Fill-13" fill="#727272" sketch:type="MSShapeGroup"></path>
            <path d="M179.219,250.504 L42.52,250.504 C19.624,250.504 0.994,231.877 0.994,208.982 L0.994,171.049 L54.925,122.514 L57.341,125.299 C70.829,140.84 90.338,149.752 110.87,149.752 C131.401,149.752 150.911,140.84 164.398,125.299 L166.814,122.514 L220.745,171.049 L220.745,208.982 C220.745,231.877 202.117,250.504 179.219,250.504 L179.219,250.504 Z M8.239,174.275 L8.239,208.982 C8.239,227.883 23.618,243.26 42.52,243.26 L179.219,243.26 C198.123,243.26 213.5,227.883 213.5,208.982 L213.5,174.275 L167.387,132.773 C152.665,148.211 132.271,156.994 110.87,156.994 C89.468,156.994 69.075,148.211 54.351,132.773 L8.239,174.275 L8.239,174.275 Z" id="Fill-14" fill="#FFFFFF" sketch:type="MSShapeGroup"></path>
            <path d="M110.87,153.373 C133.341,153.373 153.477,143.408 167.132,127.672 L110.87,77.039 L54.606,127.672 C68.262,143.408 88.398,153.373 110.87,153.373" id="Fill-15" fill="#FFFFFF" sketch:type="MSShapeGroup"></path>
            <path d="M110.87,156.994 C88.237,156.994 66.736,147.174 51.872,130.049 L49.539,127.361 L110.87,72.164 L172.201,127.361 L169.868,130.049 C155.003,147.174 133.502,156.994 110.87,156.994 L110.87,156.994 Z M59.741,127.926 C73.088,141.84 91.525,149.752 110.87,149.752 C130.214,149.752 148.651,141.84 161.999,127.926 L110.87,81.91 L59.741,127.926 L59.741,127.926 Z" id="Fill-16" fill="#FFFFFF" sketch:type="MSShapeGroup"></path>
        </g>
    </g>
</svg>