<?xml version="1.0" encoding="UTF-8" standalone="no"?>
<svg width="411px" height="46px" viewBox="0 0 411 46" version="1.1" xmlns="http://www.w3.org/2000/svg" xmlns:xlink="http://www.w3.org/1999/xlink" xmlns:sketch="http://www.bohemiancoding.com/sketch/ns">
    <!-- Generator: Sketch 3.2.2 (9983) - http://www.bohemiancoding.com/sketch -->
    <title>moleskine</title>
    <desc>Created with Sketch.</desc>
    <defs></defs>
    <g id="Page-1" stroke="none" stroke-width="1" fill="none" fill-rule="evenodd" sketch:type="MSPage">
        <g id="moleskine" sketch:type="MSLayerGroup" fill="#424141">
            <path d="M5.76,41.823 L0.865,42.215 L0.865,44.856 L14.231,44.856 L14.231,42.215 L9.336,41.823 L9.336,25.543 L9.315,24.353 L5.76,24.353 L5.76,41.823" id="Fill-1" sketch:type="MSShapeGroup"></path>
            <path d="M44.15,6.348 L44.331,6.409 L44.11,20.453 L47.604,20.453 L47.604,4.187 L52.499,3.798 L52.499,1.125 L42.858,1.125 L34.76,20.453 L38.198,20.453 L44.15,6.348" id="Fill-2" sketch:type="MSShapeGroup"></path>
            <path d="M44.03,25.543 L44.03,41.823 L39.132,42.215 L39.132,44.856 L52.499,44.856 L52.499,42.215 L47.604,41.823 L47.604,24.353 L44.049,24.353 L44.03,25.543" id="Fill-3" sketch:type="MSShapeGroup"></path>
            <path d="M9.005,6.563 L9.186,6.528 L15.078,20.453 L18.544,20.453 L10.478,1.125 L0.865,1.125 L0.865,3.798 L5.76,4.187 L5.76,20.453 L9.247,20.453 L9.005,6.563" id="Fill-4" sketch:type="MSShapeGroup"></path>
            <path d="M26.727,39.634 L26.546,39.634 L20.171,24.353 L16.73,24.353 L25.406,44.856 L27.9,44.856 L36.552,24.353 L33.127,24.353 L26.727,39.634" id="Fill-5" sketch:type="MSShapeGroup"></path>
            <path d="M95.071,37.123 C92.338,40.618 88.599,42.366 83.853,42.366 C79.226,42.366 75.562,40.615 72.858,37.109 C70.329,33.825 68.996,29.566 68.836,24.353 L65.236,24.353 C65.416,30.411 67.118,35.405 70.382,39.302 C73.837,43.426 78.324,45.49 83.853,45.49 C89.46,45.49 94.015,43.432 97.52,39.317 C100.831,35.432 102.559,30.431 102.74,24.353 L99.141,24.353 C98.978,29.583 97.634,33.849 95.071,37.123" id="Fill-6" sketch:type="MSShapeGroup"></path>
            <path d="M72.844,8.901 C75.538,5.399 79.197,3.646 83.823,3.646 C88.529,3.646 92.264,5.399 95.026,8.901 C97.425,11.941 98.776,15.795 99.096,20.453 L102.699,20.453 C102.334,14.931 100.605,10.34 97.505,6.696 C93.99,2.56 89.43,0.49 83.823,0.49 C78.296,0.49 73.809,2.56 70.365,6.696 C67.327,10.34 65.634,14.931 65.275,20.453 L68.88,20.453 C69.188,15.795 70.508,11.941 72.844,8.901" id="Fill-7" sketch:type="MSShapeGroup"></path>
            <path d="M120.523,41.823 L115.627,42.215 L115.627,44.856 L145.754,44.856 L145.754,35.666 L142.57,35.666 L142.3,41.823 L124.128,41.823 L124.128,24.353 L120.523,24.353 L120.523,41.823" id="Fill-8" sketch:type="MSShapeGroup"></path>
            <path d="M124.128,4.187 L129.024,3.798 L129.024,1.125 L115.627,1.125 L115.627,3.798 L120.523,4.187 L120.523,20.453 L124.128,20.453 L124.128,4.187" id="Fill-9" sketch:type="MSShapeGroup"></path>
            <path d="M166.866,4.187 L187.38,4.187 L187.651,10.731 L190.836,10.731 L190.836,1.125 L158.393,1.125 L158.393,3.798 L163.29,4.187 L163.29,20.453 L166.866,20.453 L166.866,4.187" id="Fill-10" sketch:type="MSShapeGroup"></path>
            <path d="M163.29,41.823 L158.393,42.215 L158.393,44.856 L190.985,44.856 L190.985,35.276 L187.801,35.276 L187.53,41.823 L166.866,41.823 L166.866,24.353 L163.29,24.353 L163.29,41.823" id="Fill-11" sketch:type="MSShapeGroup"></path>
            <path d="M229.697,28.29 C231.479,29.805 232.371,31.751 232.371,34.134 C232.371,36.636 231.304,38.65 229.171,40.17 C227.038,41.693 224.249,42.453 220.804,42.453 C218.382,42.453 216.14,42.064 214.076,41.284 C212.014,40.502 210.323,39.362 209,37.862 L208.49,31.463 L205.546,31.463 L205.546,39.121 C207.247,41.163 209.436,42.736 212.109,43.836 C214.782,44.937 217.681,45.49 220.804,45.49 C225.231,45.49 228.866,44.457 231.71,42.393 C234.553,40.33 235.976,37.558 235.976,34.073 C235.976,30.73 234.748,28.036 232.297,25.994 C231.594,25.408 230.772,24.869 229.886,24.353 L220.641,24.353 C224.926,25.501 227.95,26.81 229.697,28.29" id="Fill-12" sketch:type="MSShapeGroup"></path>
            <path d="M212.139,17.236 C210.327,15.767 209.421,13.931 209.421,11.726 C209.421,9.401 210.428,7.46 212.441,5.9 C214.452,4.336 217.261,3.553 220.866,3.553 C223.368,3.553 225.553,3.943 227.414,4.711 C229.276,5.484 230.747,6.551 231.829,7.91 L232.34,14.1 L235.284,14.1 L235.284,6.618 C233.843,4.737 231.875,3.245 229.383,2.143 C226.889,1.044 224.05,0.49 220.866,0.49 C216.44,0.49 212.823,1.543 210.023,3.646 C207.219,5.745 205.817,8.471 205.817,11.818 C205.817,15.081 207.048,17.672 209.512,19.597 C209.897,19.896 210.36,20.171 210.803,20.453 L219.13,20.453 C215.942,19.498 213.6,18.426 212.139,17.236" id="Fill-13" sketch:type="MSShapeGroup"></path>
            <path d="M278.622,41.972 L274.475,42.215 L274.475,44.856 L286.941,44.856 L286.941,42.215 L283.005,41.855 L267.639,24.353 L262.973,24.353 L278.622,41.972" id="Fill-14" sketch:type="MSShapeGroup"></path>
            <path d="M281.775,4.157 L285.62,3.798 L285.62,1.125 L273.395,1.125 L273.395,3.798 L277.6,4.036 L263.56,20.453 L267.97,20.453 L281.775,4.157" id="Fill-15" sketch:type="MSShapeGroup"></path>
            <path d="M253.328,41.823 L248.433,42.215 L248.433,44.856 L261.799,44.856 L261.799,42.215 L256.904,41.823 L256.904,24.353 L253.328,24.353 L253.328,41.823" id="Fill-16" sketch:type="MSShapeGroup"></path>
            <path d="M256.904,4.187 L261.799,3.798 L261.799,1.125 L248.433,1.125 L248.433,3.798 L253.328,4.187 L253.328,20.453 L256.904,20.453 L256.904,4.187" id="Fill-17" sketch:type="MSShapeGroup"></path>
            <path d="M303.876,41.823 L298.981,42.215 L298.981,44.856 L312.378,44.856 L312.378,42.215 L307.481,41.823 L307.481,24.353 L303.876,24.353 L303.876,41.823" id="Fill-18" sketch:type="MSShapeGroup"></path>
            <path d="M307.481,4.187 L312.378,3.798 L312.378,1.125 L298.981,1.125 L298.981,3.798 L303.876,4.187 L303.876,20.453 L307.481,20.453 L307.481,4.187" id="Fill-19" sketch:type="MSShapeGroup"></path>
            <path d="M361.691,4.187 L366.59,3.798 L366.59,1.125 L353.224,1.125 L353.224,3.798 L358.118,4.187 L358.118,20.453 L361.691,20.453 L361.691,4.187" id="Fill-20" sketch:type="MSShapeGroup"></path>
            <path d="M333.098,7.28 L333.277,7.25 L342,20.453 L345.887,20.453 L333.098,1.125 L324.596,1.125 L324.596,3.798 L329.491,4.187 L329.491,20.453 L333.098,20.453 L333.098,7.28" id="Fill-21" sketch:type="MSShapeGroup"></path>
            <path d="M358.118,38.641 L357.938,38.67 L348.467,24.353 L344.573,24.353 L358.118,44.856 L361.691,44.856 L361.691,24.353 L358.118,24.353 L358.118,38.641" id="Fill-22" sketch:type="MSShapeGroup"></path>
            <path d="M329.491,41.823 L324.596,42.215 L324.596,44.856 L337.993,44.856 L337.993,42.215 L333.098,41.823 L333.098,24.353 L329.491,24.353 L329.491,41.823" id="Fill-23" sketch:type="MSShapeGroup"></path>
            <path d="M386.588,4.187 L407.104,4.187 L407.375,10.731 L410.558,10.731 L410.558,1.125 L378.116,1.125 L378.116,3.798 L383.011,4.187 L383.011,20.453 L386.588,20.453 L386.588,4.187" id="Fill-24" sketch:type="MSShapeGroup"></path>
            <path d="M407.524,35.276 L407.253,41.823 L386.588,41.823 L386.588,24.353 L383.011,24.353 L383.011,41.823 L378.116,42.215 L378.116,44.856 L410.708,44.856 L410.708,35.276 L407.524,35.276" id="Fill-25" sketch:type="MSShapeGroup"></path>
        </g>
    </g>
</svg>